<?xml version="1.0" encoding="utf-8"?>
<svg viewBox="47.255 154.279 356.72 41.92" width="356.72" height="41.92" xmlns="http://www.w3.org/2000/svg">
  <defs>
    <radialGradient gradientUnits="userSpaceOnUse" cx="225.615" cy="175.239" r="178.36" id="gradient-1">
      <stop offset="0" style="stop-color: rgba(0, 0, 0, 1)"/>
      <stop offset="1" style="stop-color: rgba(0, 0, 0, 1)"/>
    </radialGradient>
  </defs>
  <path d="M 92.1190048828125 181.03099841308594 Q 91.8630048828125 180.58299841308593 91.8630048828125 179.78299841308595 Q 91.8630048828125 178.98299841308594 91.9910048828125 177.95899841308594 L 91.4790048828125 177.95899841308594 L 88.47100488281251 195.23899841308594 L 76.3110048828125 195.23899841308594 L 83.3510048828125 155.23899841308594 L 94.80700488281249 155.23899841308594 L 101.3350048828125 169.44699841308594 Q 101.52700488281249 169.89499841308594 101.52700488281249 170.69499841308593 Q 101.52700488281249 171.49499841308594 101.3990048828125 172.51899841308594 L 101.9110048828125 172.51899841308594 L 104.98300488281251 155.23899841308594 L 117.1430048828125 155.23899841308594 L 110.1030048828125 195.23899841308594 L 98.6470048828125 195.23899841308594 Z M 74.3910048828125 195.04699841308593 L 47.2550048828125 192.16699841308593 L 74.9030048828125 192.16699841308593 Z M 76.5670048828125 182.69499841308593 L 49.4310048828125 179.81499841308593 L 77.0790048828125 179.81499841308593 Z M 77.6550048828125 176.55099841308595 L 50.519004882812496 173.67099841308593 L 78.1670048828125 173.67099841308593 Z M 78.7430048828125 170.40699841308594 L 51.607004882812504 167.52699841308595 L 79.2550048828125 167.52699841308595 Z M 79.8310048828125 164.26299841308594 L 52.6950048828125 161.38299841308594 L 80.2790048828125 161.38299841308594 Z M 75.4790048828125 188.83899841308593 L 48.3430048828125 185.95899841308594 L 75.9910048828125 185.95899841308594 Z M 80.8550048828125 158.11899841308593 L 53.7830048828125 155.23899841308594 L 81.3670048828125 155.23899841308594 Z M 164.81595220947264 165.47899841308595 L 155.98395220947265 165.47899841308595 L 150.79995220947265 195.23899841308594 L 138.63995220947265 195.23899841308594 L 143.82395220947265 165.47899841308595 L 135.05595220947265 165.47899841308595 L 136.91195220947264 155.23899841308594 L 166.67195220947266 155.23899841308594 Z M 136.65595220947264 195.04699841308593 L 109.51995220947265 192.16699841308593 L 137.16795220947265 192.16699841308593 Z M 138.83195220947266 182.69499841308593 L 111.69595220947265 179.81499841308593 L 139.34395220947266 179.81499841308593 Z M 139.91995220947265 176.55099841308595 L 112.78395220947266 173.67099841308593 L 140.43195220947266 173.67099841308593 Z M 141.00795220947265 170.40699841308594 L 113.87195220947265 167.52699841308595 L 141.51995220947265 167.52699841308595 Z M 137.74395220947267 188.83899841308593 L 110.60795220947266 185.95899841308594 L 138.25595220947267 185.95899841308594 Z M 133.32795220947264 164.26299841308594 L 106.19195220947266 161.38299841308594 L 133.77595220947265 161.38299841308594 Z M 134.35195220947264 158.11899841308593 L 107.27995220947265 155.23899841308594 L 134.86395220947264 155.23899841308594 Z M 204.23782348632812 180.13499841308592 L 192.07782348632813 180.13499841308592 L 191.24582348632813 184.99899841308593 L 206.15782348632814 184.99899841308593 L 204.3658234863281 195.23899841308594 L 177.29382348632814 195.23899841308594 L 184.33382348632813 155.23899841308594 L 211.08582348632814 155.23899841308594 L 207.75782348632814 165.47899841308595 L 194.63782348632813 165.47899841308595 L 193.74182348632812 170.85499841308592 L 205.9018234863281 170.85499841308592 Z M 175.37382348632812 195.04699841308593 L 148.23782348632812 192.16699841308593 L 175.88582348632812 192.16699841308593 Z M 177.54982348632814 182.69499841308593 L 150.4138234863281 179.81499841308593 L 178.06182348632814 179.81499841308593 Z M 178.63782348632813 176.55099841308595 L 151.50182348632814 173.67099841308593 L 179.14982348632813 173.67099841308593 Z M 179.72582348632812 170.40699841308594 L 152.58982348632813 167.52699841308595 L 180.23782348632812 167.52699841308595 Z M 180.81382348632812 164.26299841308594 L 153.67782348632812 161.38299841308594 L 181.26182348632813 161.38299841308594 Z M 176.46182348632811 188.83899841308593 L 149.32582348632812 185.95899841308594 L 176.97382348632811 185.95899841308594 Z M 181.83782348632812 158.11899841308593 L 154.76582348632812 155.23899841308594 L 182.34982348632812 155.23899841308594 Z M 249.9938302001953 155.23899841308594 Q 260.9378302001953 155.23899841308594 260.9378302001953 165.03099841308594 Q 260.9378302001953 169.06299841308595 259.7218302001953 172.71099841308595 Q 257.4818302001953 179.62299841308595 252.68183020019532 181.92699841308593 L 256.9058302001953 195.23899841308594 L 243.5298302001953 195.23899841308594 L 240.58583020019532 183.33499841308594 L 237.96183020019532 183.33499841308594 L 235.91383020019532 195.23899841308594 L 223.75383020019532 195.23899841308594 L 230.79383020019532 155.23899841308594 Z M 242.5058302001953 173.47899841308595 Q 244.68183020019532 173.47899841308595 245.8018302001953 172.99899841308593 Q 246.9218302001953 172.51899841308594 247.3378302001953 170.24699841308595 Q 247.7538302001953 167.97499841308593 247.7538302001953 167.46299841308593 Q 247.7538302001953 166.18299841308593 246.7618302001953 165.83099841308592 Q 245.76983020019532 165.47899841308595 243.5298302001953 165.47899841308595 L 241.09783020019532 165.47899841308595 L 239.6898302001953 173.47899841308595 Z M 221.8338302001953 195.04699841308593 L 194.6978302001953 192.16699841308593 L 222.3458302001953 192.16699841308593 Z M 224.00983020019532 182.69499841308593 L 196.8738302001953 179.81499841308593 L 224.52183020019532 179.81499841308593 Z M 226.12183020019532 170.40699841308594 L 199.04983020019532 167.52699841308595 L 226.63383020019532 167.52699841308595 Z M 227.2098302001953 164.26299841308594 L 200.1378302001953 161.38299841308594 L 227.7218302001953 161.38299841308594 Z M 222.9218302001953 188.83899841308593 L 195.7858302001953 185.95899841308594 L 223.4338302001953 185.95899841308594 Z M 228.2978302001953 158.11899841308593 L 201.2258302001953 155.23899841308594 L 228.8098302001953 155.23899841308594 Z M 225.03383020019533 176.55099841308595 L 197.96183020019532 173.67099841308593 L 225.54583020019533 173.67099841308593 Z M 278.0899113769531 170.40699841308594 L 250.95391137695313 167.52699841308595 L 278.5379113769531 167.52699841308595 Q 278.2179113769531 168.80699841308592 278.0899113769531 170.40699841308594 Z M 280.2659113769531 161.38299841308594 L 279.30591137695313 164.19899841308595 L 252.74591137695313 161.38299841308594 Z M 278.0899113769531 173.67099841308593 Q 278.2179113769531 175.39899841308593 278.6019113769531 176.55099841308595 L 251.52991137695312 173.67099841308593 Z M 287.0499113769531 182.69499841308593 L 253.1939113769531 179.81499841308593 L 280.7779113769531 179.81499841308593 Q 282.88991137695314 181.86299841308593 287.0499113769531 182.69499841308593 Z M 285.0659113769531 155.23899841308594 Q 283.59391137695314 156.19899841308595 282.24991137695315 157.86299841308593 L 257.54591137695314 155.23899841308594 Z M 252.10591137695312 185.95899841308594 L 276.0419113769531 185.95899841308594 L 275.08191137695314 188.77499841308594 Z M 251.01791137695312 192.16699841308593 L 273.9939113769531 192.16699841308593 L 273.03391137695314 194.98299841308594 Z M 278.79391137695313 183.97499841308593 Q 284.1699113769531 185.44699841308594 288.61791137695315 185.44699841308594 Q 293.0659113769531 185.44699841308594 295.8819113769531 185.06299841308595 L 296.39391137695316 181.86299841308593 L 291.08191137695314 181.35099841308593 Q 285.0019113769531 180.77499841308594 282.47391137695314 178.59899841308595 Q 279.9459113769531 176.42299841308593 279.9459113769531 172.45499841308595 Q 279.9459113769531 170.72699841308594 280.32991137695313 168.61499841308594 Q 281.8019113769531 160.42299841308593 285.7059113769531 157.35099841308593 Q 289.6099113769531 154.27899841308593 297.7059113769531 154.27899841308593 Q 305.8019113769531 154.27899841308593 312.00991137695314 155.87899841308592 L 308.6819113769531 166.11899841308593 Q 303.1139113769531 165.15899841308592 299.7539113769531 165.15899841308592 Q 296.39391137695316 165.15899841308592 293.96191137695314 165.47899841308595 L 293.44991137695314 168.61499841308594 L 297.73791137695315 169.06299841308595 Q 304.2659113769531 169.76699841308593 307.0179113769531 172.16699841308593 Q 309.76991137695313 174.56699841308594 309.76991137695313 178.59899841308595 Q 309.76991137695313 182.69499841308593 308.0419113769531 187.04699841308593 Q 307.08191137695314 189.28699841308594 306.0259113769531 190.79099841308593 Q 304.9699113769531 192.29499841308595 303.3379113769531 193.35099841308593 Q 301.7059113769531 194.40699841308594 300.3619113769531 194.95099841308593 Q 299.0179113769531 195.49499841308594 296.9059113769531 195.75099841308594 Q 293.96191137695314 196.19899841308595 289.6099113769531 196.19899841308595 Q 281.67391137695313 196.19899841308595 275.20991137695313 194.53499841308593 Z M 343.0489868164062 185.25499841308593 Q 345.54498681640627 185.25499841308593 346.7609868164063 184.64699841308592 Q 347.9769868164062 184.03899841308595 348.36098681640624 181.86299841308593 L 351.30498681640626 165.22299841308595 L 346.18498681640625 165.22299841308595 Q 343.75298681640623 165.22299841308595 342.5369868164062 165.83099841308592 Q 341.3209868164063 166.43899841308593 340.93698681640626 168.61499841308594 L 337.99298681640624 185.25499841308593 Z M 348.2969868164063 154.27899841308593 Q 356.42498681640626 154.27899841308593 359.8809868164062 157.44699841308594 Q 363.33698681640624 160.61499841308594 363.33698681640624 167.20699841308593 Q 363.33698681640624 173.79899841308594 361.25698681640625 180.99899841308593 Q 359.17698681640627 188.19899841308595 354.66498681640627 192.19899841308595 Q 350.15298681640627 196.19899841308595 341.48098681640624 196.19899841308595 Q 332.8089868164063 196.19899841308595 329.35298681640626 193.03099841308594 Q 325.89698681640624 189.86299841308593 325.89698681640624 183.27099841308595 Q 325.89698681640624 180.13499841308592 326.79298681640626 174.98299841308594 Q 327.68898681640627 169.83099841308592 329.16098681640625 166.08699841308595 Q 330.63298681640623 162.34299841308592 333.12898681640627 159.59099841308594 Q 337.9289868164062 154.27899841308593 348.2969868164063 154.27899841308593 Z M 324.93698681640626 174.95099841308593 Q 324.8089868164063 175.46299841308593 324.68098681640623 176.35899841308594 L 299.52898681640625 173.67099841308593 L 325.12898681640627 173.67099841308593 Z M 324.23298681640625 179.81499841308593 Q 324.04098681640625 181.28699841308594 324.04098681640625 182.50299841308595 L 298.82498681640624 179.81499841308593 Z M 326.66498681640627 167.52699841308595 L 325.89698681640624 170.15099841308594 L 301.06498681640625 167.52699841308595 Z M 324.10498681640627 185.95899841308594 Q 324.36098681640624 187.75099841308594 324.55298681640625 188.64699841308592 L 299.65698681640623 185.95899841308594 Z M 329.28898681640624 161.38299841308594 Q 328.3929868164063 163.04699841308593 328.00898681640626 163.94299841308595 L 304.0729868164062 161.38299841308594 Z M 326.0249868164062 192.16699841308593 Q 326.8569868164063 193.63899841308594 327.94498681640624 194.53499841308593 L 305.80098681640624 192.16699841308593 Z M 335.3689868164063 155.23899841308594 Q 333.5129868164062 156.39099841308592 332.4889868164062 157.35099841308593 L 312.9049868164062 155.23899841308594 Z M 402.18297631835935 195.23899841308594 L 377.86297631835936 195.23899841308594 L 384.9029763183594 155.23899841308594 L 397.06297631835935 155.23899841308594 L 391.81497631835936 184.99899841308593 L 403.9749763183594 184.99899841308593 Z M 375.9429763183594 195.04699841308593 L 348.8069763183594 192.16699841308593 L 376.4549763183594 192.16699841308593 Z M 378.1189763183594 182.69499841308593 L 350.98297631835936 179.81499841308593 L 378.6309763183594 179.81499841308593 Z M 379.20697631835935 176.55099841308595 L 352.0709763183594 173.67099841308593 L 379.71897631835935 173.67099841308593 Z M 380.2949763183594 170.40699841308594 L 353.15897631835935 167.52699841308595 L 380.8069763183594 167.52699841308595 Z M 381.3829763183594 164.26299841308594 L 354.2469763183594 161.38299841308594 L 381.8309763183594 161.38299841308594 Z M 377.03097631835936 188.83899841308593 L 349.8949763183594 185.95899841308594 L 377.54297631835936 185.95899841308594 Z M 382.4069763183594 158.11899841308593 L 355.3349763183594 155.23899841308594 L 382.9189763183594 155.23899841308594 Z" style="white-space: pre; fill: #ffffff"/>
</svg>