<?xml version="1.0" standalone="no"?>
<!DOCTYPE svg PUBLIC "-//W3C//DTD SVG 20010904//EN"
 "http://www.w3.org/TR/2001/REC-SVG-20010904/DTD/svg10.dtd">
<svg version="1.0" xmlns="http://www.w3.org/2000/svg"
 width="700.000000pt" height="700.000000pt" viewBox="0 0 700.000000 700.000000"
 preserveAspectRatio="xMidYMid meet">
<metadata>
Created by potrace 1.14, written by Peter Selinger 2001-2017
</metadata>
<g transform="translate(0.000000,700.000000) scale(0.100000,-0.100000)"
fill="#000000" stroke="none">
<path d="M3116 6945 c-480 -58 -953 -213 -1343 -440 -970 -568 -1595 -1526
-1718 -2635 -20 -178 -20 -562 0 -740 65 -580 257 -1102 582 -1580 574 -842
1485 -1387 2499 -1495 180 -19 547 -19 727 0 1016 108 1925 652 2500 1495 326
480 521 1010 582 1586 19 181 19 547 0 728 -70 660 -329 1289 -741 1802 -560
696 -1347 1141 -2244 1270 -161 23 -679 28 -844 9z m869 -84 c382 -59 700
-160 1029 -325 200 -101 390 -216 378 -228 -5 -5 -1126 -589 -2493 -1299
-1366 -710 -2553 -1327 -2638 -1371 l-154 -81 6 144 c27 589 236 1203 583
1712 472 690 1182 1184 1988 1382 310 76 484 94 861 90 246 -2 325 -7 440 -24z
m1562 -652 c632 -478 1089 -1184 1262 -1949 65 -291 75 -391 75 -760 0 -299
-2 -351 -22 -480 -97 -620 -331 -1161 -707 -1635 -102 -128 -249 -285 -367
-392 -141 -127 -306 -255 -325 -251 -7 2 -1187 613 -2622 1358 l-2608 1355
2614 3 2613 2 0 40 0 40 -2613 2 -2614 3 2611 1357 c1436 746 2616 1357 2623
1357 6 1 42 -22 80 -50z m-2648 -4218 c1367 -710 2488 -1294 2493 -1299 4 -4
-38 -37 -95 -72 -394 -246 -831 -406 -1317 -482 -129 -20 -181 -22 -480 -22
-369 0 -469 10 -760 75 -1235 279 -2224 1250 -2534 2486 -55 221 -96 513 -96
685 l0 79 153 -80 c83 -44 1270 -660 2636 -1370z"/>
</g>
</svg>
