<?xml version="1.0" standalone="no"?>
<!DOCTYPE svg PUBLIC "-//W3C//DTD SVG 20010904//EN"
 "http://www.w3.org/TR/2001/REC-SVG-20010904/DTD/svg10.dtd">
<svg version="1.0" xmlns="http://www.w3.org/2000/svg"
 width="700.000000pt" height="700.000000pt" viewBox="0 0 700.000000 700.000000"
 preserveAspectRatio="xMidYMid meet">
<metadata>
Created by potrace 1.14, written by Peter Selinger 2001-2017
</metadata>
<g transform="translate(0.000000,700.000000) scale(0.100000,-0.100000)"
fill="#000000" stroke="none">
<path d="M3444 6746 c-49 -18 -79 -47 -124 -122 -38 -62 -238 -385 -295 -474
-12 -19 -50 -80 -85 -135 -34 -55 -81 -129 -104 -164 -22 -36 -45 -73 -51 -82
-53 -91 -80 -135 -85 -139 -3 -3 -21 -30 -38 -60 -18 -30 -50 -82 -71 -115
-195 -310 -281 -448 -281 -451 0 -3 -5 -10 -10 -17 -6 -7 -74 -113 -151 -237
-175 -278 -167 -266 -209 -336 -19 -33 -38 -63 -42 -69 -13 -15 -388 -617
-388 -622 0 -2 -5 -9 -10 -16 -6 -7 -51 -77 -100 -157 -50 -80 -94 -152 -100
-160 -6 -8 -152 -242 -325 -520 -174 -278 -328 -525 -344 -550 -99 -158 -104
-170 -104 -219 1 -26 8 -61 16 -77 50 -95 174 -128 255 -66 29 22 94 107 115
152 4 8 20 34 35 58 32 50 340 542 362 577 8 14 200 320 425 680 226 361 419
670 430 689 23 38 366 585 407 648 15 24 31 50 35 58 5 9 71 116 148 238 77
122 147 233 155 247 8 14 91 145 183 292 201 321 165 263 292 468 59 94 109
171 113 173 6 2 150 -218 213 -326 9 -15 90 -144 179 -287 90 -143 180 -287
201 -320 20 -33 137 -220 259 -415 123 -195 228 -364 234 -375 6 -11 25 -40
41 -65 17 -25 32 -50 35 -55 3 -6 135 -217 293 -470 159 -253 294 -469 300
-479 7 -11 39 -63 71 -115 56 -91 85 -137 152 -241 16 -25 31 -50 34 -55 3 -6
46 -74 95 -153 50 -79 97 -155 106 -170 98 -163 446 -713 463 -730 32 -36 72
-53 125 -54 78 0 140 44 166 117 13 40 10 96 -8 130 -10 19 -686 1105 -732
1175 -12 19 -57 91 -100 160 -42 69 -88 141 -100 160 -13 19 -193 307 -400
640 -207 333 -387 621 -400 640 -12 19 -57 91 -100 160 -42 69 -88 141 -100
160 -24 37 -390 623 -415 665 -18 30 -367 588 -395 632 -11 17 -36 57 -55 88
-52 85 -136 120 -216 91z"/>
<path d="M3437 4934 c-1 -1 -30 -4 -64 -7 -349 -33 -692 -278 -851 -607 -36
-75 -78 -201 -86 -257 -19 -129 -23 -173 -20 -252 10 -273 120 -526 316 -724
291 -294 723 -397 1113 -265 349 118 615 405 705 758 154 605 -226 1207 -845
1336 -53 11 -259 25 -268 18z m188 -218 c96 -12 239 -64 332 -123 351 -220
500 -634 369 -1024 -69 -205 -227 -391 -421 -494 -42 -23 -198 -82 -220 -83
-5 -1 -32 -4 -60 -7 -92 -11 -140 -12 -220 -3 -397 41 -725 363 -772 758 -49
412 186 793 575 933 82 30 103 35 187 43 33 4 61 8 63 9 4 3 104 -2 167 -9z"/>
</g>
</svg>
