<?xml version="1.0" encoding="utf-8"?>
<svg viewBox="8.202 192.182 452.246 110.4" width="452.246" height="110.4" xmlns="http://www.w3.org/2000/svg">
<style>
  svg {
    width: 100vw;
    height: auto;
  }
</style>
  <path d="M 57.702000808715816 193.53199462890626 L 94.30200080871582 287.8819946289062 Q 96.55200080871582 293.5819946289063 99.40200080871581 295.4569946289063 Q 102.25200080871582 297.3319946289063 104.65200080871581 297.48199462890625 L 104.65200080871581 300.48199462890625 Q 101.65200080871581 300.18199462890624 97.30200080871582 300.10699462890625 Q 92.95200080871582 300.03199462890626 88.60200080871581 300.03199462890626 Q 82.75200080871582 300.03199462890626 77.65200080871581 300.10699462890625 Q 72.55200080871582 300.18199462890624 69.40200080871583 300.48199462890625 L 69.40200080871583 297.48199462890625 Q 77.05200080871582 297.18199462890624 79.15200080871581 294.85699462890625 Q 81.25200080871582 292.53199462890626 78.25200080871582 284.8819946289062 L 50.35200080871582 210.33199462890627 L 52.75200080871582 208.38199462890626 L 26.65200080871582 276.18199462890624 Q 24.25200080871582 282.18199462890624 23.802000808715817 286.30699462890624 Q 23.35200080871582 290.43199462890624 24.62700080871582 292.8319946289063 Q 25.90200080871582 295.23199462890625 28.977000808715818 296.28199462890626 Q 32.05200080871582 297.3319946289063 36.70200080871582 297.48199462890625 L 36.70200080871582 300.48199462890625 Q 32.50200080871582 300.18199462890624 27.92700080871582 300.10699462890625 Q 23.35200080871582 300.03199462890626 19.45200080871582 300.03199462890626 Q 15.70200080871582 300.03199462890626 13.07700080871582 300.10699462890625 Q 10.45200080871582 300.18199462890624 8.20200080871582 300.48199462890625 L 8.20200080871582 297.48199462890625 Q 11.20200080871582 296.73199462890625 14.35200080871582 293.9569946289063 Q 17.50200080871582 291.18199462890624 20.052000808715817 284.43199462890624 L 55.30200080871582 193.53199462890626 Q 55.90200080871582 193.53199462890626 56.50200080871582 193.53199462890626 Q 57.10200080871582 193.53199462890626 57.702000808715816 193.53199462890626 Z M 76.00200080871582 257.28199462890626 L 76.00200080871582 260.28199462890626 L 31.30200080871582 260.28199462890626 L 32.80200080871582 257.28199462890626 Z M 158.6477798461914 192.18199462890624 Q 168.39777984619138 192.18199462890624 174.39777984619138 195.10699462890625 Q 180.39777984619138 198.03199462890626 185.64777984619138 201.93199462890624 Q 187.5977798461914 203.43199462890624 188.64777984619138 203.43199462890624 Q 191.4977798461914 203.43199462890624 192.39777984619138 194.28199462890626 L 195.8477798461914 194.28199462890626 Q 195.54777984619142 199.83199462890627 195.39777984619138 207.78199462890626 Q 195.2477798461914 215.73199462890625 195.2477798461914 228.78199462890626 L 191.79777984619142 228.78199462890626 Q 190.7477798461914 222.48199462890625 189.2477798461914 216.63199462890626 Q 187.7477798461914 210.78199462890626 184.29777984619142 206.58199462890627 Q 179.9477798461914 201.03199462890626 172.89777984619138 197.95699462890627 Q 165.8477798461914 194.88199462890626 158.3477798461914 194.88199462890626 Q 150.8477798461914 194.88199462890626 144.7727798461914 198.55699462890624 Q 138.6977798461914 202.23199462890625 134.3477798461914 209.13199462890626 Q 129.9977798461914 216.03199462890626 127.6727798461914 225.70699462890627 Q 125.3477798461914 235.38199462890626 125.3477798461914 247.53199462890626 Q 125.3477798461914 274.53199462890626 134.04777984619142 287.05699462890624 Q 142.7477798461914 299.5819946289063 161.04777984619142 299.5819946289063 Q 166.4477798461914 299.5819946289063 170.42277984619142 298.0069946289062 Q 174.39777984619138 296.43199462890624 176.64777984619138 294.93199462890624 Q 179.4977798461914 292.98199462890625 180.2477798461914 291.2569946289062 Q 180.9977798461914 289.53199462890626 180.9977798461914 286.68199462890624 L 180.9977798461914 272.28199462890626 Q 180.9977798461914 266.1319946289062 179.79777984619142 263.1319946289062 Q 178.5977798461914 260.1319946289062 175.3727798461914 259.0819946289063 Q 172.14777984619138 258.03199462890626 165.8477798461914 257.8819946289062 L 165.8477798461914 254.88199462890626 Q 168.54777984619142 255.03199462890626 172.14777984619138 255.10699462890625 Q 175.7477798461914 255.18199462890624 179.7227798461914 255.25699462890626 Q 183.6977798461914 255.33199462890624 186.9977798461914 255.33199462890624 Q 191.9477798461914 255.33199462890624 195.92277984619142 255.18199462890624 Q 199.89777984619138 255.03199462890626 202.5977798461914 254.88199462890626 L 202.5977798461914 257.8819946289062 Q 199.29777984619142 258.03199462890626 197.64777984619138 258.93199462890624 Q 195.9977798461914 259.8319946289063 195.4727798461914 262.53199462890626 Q 194.9477798461914 265.23199462890625 194.9477798461914 270.78199462890626 L 194.9477798461914 300.48199462890625 L 191.9477798461914 300.48199462890625 Q 191.79777984619142 297.93199462890624 190.8227798461914 294.93199462890624 Q 189.8477798461914 291.93199462890624 187.89777984619138 291.93199462890624 Q 186.9977798461914 291.93199462890624 186.0977798461914 292.3819946289062 Q 185.1977798461914 292.8319946289063 182.9477798461914 294.48199462890625 Q 177.9977798461914 298.23199462890625 172.4477798461914 300.40699462890626 Q 166.89777984619138 302.5819946289063 159.54777984619142 302.5819946289063 Q 144.0977798461914 302.5819946289063 133.0727798461914 296.2069946289063 Q 122.0477798461914 289.8319946289063 116.19777984619141 277.8319946289063 Q 110.3477798461914 265.8319946289063 110.3477798461914 249.18199462890624 Q 110.3477798461914 231.63199462890626 116.64777984619141 218.88199462890626 Q 122.94777984619141 206.13199462890626 133.8227798461914 199.15699462890626 Q 144.6977798461914 192.18199462890624 158.6477798461914 192.18199462890624 Z M 308.20082092285156 194.28199462890626 L 308.20082092285156 197.28199462890626 Q 303.10082092285154 197.43199462890624 300.47582092285154 198.78199462890626 Q 297.85082092285154 200.13199462890626 296.95082092285156 203.13199462890626 Q 296.0508209228516 206.13199462890626 296.0508209228516 211.68199462890624 L 296.0508209228516 301.23199462890625 Q 295.15082092285155 301.23199462890625 294.32582092285156 301.23199462890625 Q 293.5008209228516 301.23199462890625 292.60082092285154 301.23199462890625 L 229.60082092285157 203.88199462890626 L 229.60082092285157 283.0819946289063 Q 229.60082092285157 288.48199462890625 230.57582092285156 291.55699462890624 Q 231.55082092285156 294.6319946289062 234.47582092285157 295.90699462890626 Q 237.40082092285155 297.18199462890624 243.25082092285157 297.48199462890625 L 243.25082092285157 300.48199462890625 Q 240.55082092285156 300.18199462890624 236.20082092285156 300.10699462890625 Q 231.85082092285157 300.03199462890626 227.95082092285156 300.03199462890626 Q 224.20082092285156 300.03199462890626 220.37582092285157 300.10699462890625 Q 216.55082092285156 300.18199462890624 214.00082092285157 300.48199462890625 L 214.00082092285157 297.48199462890625 Q 219.10082092285157 297.18199462890624 221.72582092285157 295.90699462890626 Q 224.35082092285157 294.6319946289062 225.25082092285157 291.55699462890624 Q 226.15082092285155 288.48199462890625 226.15082092285155 283.0819946289063 L 226.15082092285155 210.18199462890624 Q 226.15082092285155 204.63199462890626 225.25082092285157 202.00699462890626 Q 224.35082092285157 199.38199462890626 221.72582092285157 198.40699462890626 Q 219.10082092285157 197.43199462890624 214.00082092285157 197.28199462890626 L 214.00082092285157 194.28199462890626 Q 216.55082092285156 194.43199462890624 220.37582092285157 194.58199462890627 Q 224.20082092285156 194.73199462890625 227.95082092285156 194.73199462890625 Q 231.25082092285157 194.73199462890625 234.25082092285157 194.58199462890627 Q 237.25082092285157 194.43199462890624 239.65082092285155 194.28199462890626 L 292.60082092285154 275.8819946289062 L 292.60082092285154 211.68199462890624 Q 292.60082092285154 206.13199462890626 291.6258209228516 203.13199462890626 Q 290.65082092285155 200.13199462890626 287.72582092285154 198.78199462890626 Q 284.8008209228516 197.43199462890624 278.95082092285156 197.28199462890626 L 278.95082092285156 194.28199462890626 Q 281.65082092285155 194.43199462890624 286.07582092285156 194.58199462890627 Q 290.5008209228516 194.73199462890625 294.2508209228516 194.73199462890625 Q 298.15082092285155 194.73199462890625 301.97582092285154 194.58199462890627 Q 305.8008209228516 194.43199462890624 308.20082092285156 194.28199462890626 Z M 411.85009765625 194.28199462890626 L 411.85009765625 197.28199462890626 Q 406.75009765625 197.43199462890624 404.12509765625 198.78199462890626 Q 401.50009765625 200.13199462890626 400.60009765625 203.13199462890626 Q 399.70009765625 206.13199462890626 399.70009765625 211.68199462890624 L 399.70009765625 256.8319946289063 Q 399.70009765625 267.3319946289063 398.35009765625 275.1319946289062 Q 397.00009765625 282.93199462890624 393.55009765625 288.6319946289062 Q 389.80009765625 294.93199462890624 382.60009765625 298.7569946289062 Q 375.40009765625 302.5819946289063 366.10009765625 302.5819946289063 Q 358.90009765625 302.5819946289063 352.37509765625 300.85699462890625 Q 345.85009765625 299.1319946289062 340.90009765625 294.48199462890625 Q 336.55009765625 290.28199462890626 334.07509765625 285.6319946289062 Q 331.60009765625 280.98199462890625 330.70009765625 274.23199462890625 Q 329.80009765625 267.48199462890625 329.80009765625 257.28199462890626 L 329.80009765625 210.18199462890624 Q 329.80009765625 204.63199462890626 328.90009765625 202.00699462890626 Q 328.00009765625 199.38199462890626 325.37509765625 198.40699462890626 Q 322.75009765625 197.43199462890624 317.65009765625 197.28199462890626 L 317.65009765625 194.28199462890626 Q 320.80009765625 194.43199462890624 325.90009765625 194.58199462890627 Q 331.00009765625 194.73199462890625 336.85009765625 194.73199462890625 Q 342.10009765625 194.73199462890625 347.27509765625 194.58199462890627 Q 352.45009765625 194.43199462890624 355.90009765625 194.28199462890626 L 355.90009765625 197.28199462890626 Q 350.80009765625 197.43199462890624 348.17509765625 198.40699462890626 Q 345.55009765625 199.38199462890626 344.65009765625 202.00699462890626 Q 343.75009765625 204.63199462890626 343.75009765625 210.18199462890624 L 343.75009765625 259.8319946289063 Q 343.75009765625 267.48199462890625 344.50009765625 274.30699462890624 Q 345.25009765625 281.1319946289062 347.57509765625 286.30699462890624 Q 349.90009765625 291.48199462890625 354.70009765625 294.40699462890626 Q 359.50009765625 297.3319946289063 367.45009765625 297.3319946289063 Q 378.85009765625 297.3319946289063 385.07509765625 292.30699462890624 Q 391.30009765625 287.28199462890626 393.77509765625 278.43199462890624 Q 396.25009765625 269.5819946289063 396.25009765625 258.48199462890625 L 396.25009765625 211.68199462890624 Q 396.25009765625 206.13199462890626 394.97509765625 203.13199462890626 Q 393.70009765625 200.13199462890626 390.70009765625 198.78199462890626 Q 387.70009765625 197.43199462890624 382.60009765625 197.28199462890626 L 382.60009765625 194.28199462890626 Q 385.30009765625 194.43199462890624 389.72509765625 194.58199462890627 Q 394.15009765625 194.73199462890625 397.90009765625 194.73199462890625 Q 401.80009765625 194.73199462890625 405.62509765625 194.58199462890627 Q 409.45009765625 194.43199462890624 411.85009765625 194.28199462890626 Z M 460.44797973632814 194.28199462890626 L 460.44797973632814 197.28199462890626 Q 455.3479797363281 197.43199462890624 452.7229797363281 198.40699462890626 Q 450.0979797363281 199.38199462890626 449.19797973632814 202.00699462890626 Q 448.2979797363281 204.63199462890626 448.2979797363281 210.18199462890624 L 448.2979797363281 284.5819946289063 Q 448.2979797363281 289.98199462890625 449.19797973632814 292.68199462890624 Q 450.0979797363281 295.3819946289062 452.7229797363281 296.28199462890626 Q 455.3479797363281 297.18199462890624 460.44797973632814 297.48199462890625 L 460.44797973632814 300.48199462890625 Q 456.99797973632815 300.18199462890624 451.82297973632814 300.10699462890625 Q 446.6479797363281 300.03199462890626 441.3979797363281 300.03199462890626 Q 435.5479797363281 300.03199462890626 430.44797973632814 300.10699462890625 Q 425.3479797363281 300.18199462890624 422.19797973632814 300.48199462890625 L 422.19797973632814 297.48199462890625 Q 427.2979797363281 297.18199462890624 429.9229797363281 296.28199462890626 Q 432.5479797363281 295.3819946289062 433.44797973632814 292.68199462890624 Q 434.3479797363281 289.98199462890625 434.3479797363281 284.5819946289063 L 434.3479797363281 210.18199462890624 Q 434.3479797363281 204.63199462890626 433.44797973632814 202.00699462890626 Q 432.5479797363281 199.38199462890626 429.9229797363281 198.40699462890626 Q 427.2979797363281 197.43199462890624 422.19797973632814 197.28199462890626 L 422.19797973632814 194.28199462890626 Q 425.3479797363281 194.43199462890624 430.44797973632814 194.58199462890627 Q 435.5479797363281 194.73199462890625 441.3979797363281 194.73199462890625 Q 446.6479797363281 194.73199462890625 451.82297973632814 194.58199462890627 Q 456.99797973632815 194.43199462890624 460.44797973632814 194.28199462890626 Z" style="fill: rgb(0,0,0); white-space: pre;"/>
</svg>