<?xml version="1.0" standalone="no"?>
<!DOCTYPE svg PUBLIC "-//W3C//DTD SVG 20010904//EN"
 "http://www.w3.org/TR/2001/REC-SVG-20010904/DTD/svg10.dtd">
<svg version="1.0" xmlns="http://www.w3.org/2000/svg"
 width="700.000000pt" height="700.000000pt" viewBox="0 0 700.000000 700.000000"
 preserveAspectRatio="xMidYMid meet">
<metadata>
Created by potrace 1.14, written by Peter Selinger 2001-2017
</metadata>
<g transform="translate(0.000000,700.000000) scale(0.100000,-0.100000)"
fill="#000000" stroke="none">
<path d="M3435 6041 c-22 -10 -53 -33 -69 -52 -15 -19 -660 -1046 -1432 -2283
l-1404 -2248 0 -58 c0 -100 68 -170 167 -170 59 0 96 15 129 52 12 12 616 975
1343 2138 727 1163 1326 2115 1331 2115 5 0 604 -952 1331 -2115 727 -1163
1331 -2126 1343 -2138 33 -37 70 -52 129 -52 99 0 167 70 167 170 l0 58 -1404
2248 c-772 1237 -1417 2264 -1432 2283 -31 37 -94 71 -134 71 -14 0 -43 -9
-65 -19z"/>
<path d="M3330 4223 c-444 -87 -766 -381 -882 -806 -20 -71 -23 -106 -23 -267
0 -160 3 -196 23 -267 106 -389 396 -679 785 -785 71 -20 107 -23 267 -23 161
0 196 3 267 23 389 106 680 397 785 785 19 71 22 108 23 267 0 161 -3 196 -23
267 -106 387 -396 678 -780 784 -61 17 -112 22 -247 24 -93 2 -181 1 -195 -2z
m440 -242 c137 -46 239 -110 345 -216 106 -106 169 -207 217 -345 32 -93 33
-98 33 -270 0 -172 -1 -177 -33 -270 -48 -138 -111 -239 -217 -345 -106 -106
-208 -170 -345 -216 -84 -29 -111 -33 -235 -37 -101 -3 -160 0 -211 11 -302
64 -553 288 -655 585 -33 96 -34 99 -34 272 0 173 1 176 34 272 84 244 273
445 505 538 126 51 183 60 351 56 138 -2 158 -5 245 -35z"/>
</g>
</svg>
